<mxfile host="app.diagrams.net" modified="2023-11-12T13:51:21.380Z" agent="Mozilla/5.0 (Windows NT 10.0; Win64; x64) AppleWebKit/537.36 (KHTML, like Gecko) Chrome/116.0.0.0 Safari/537.36 OPR/102.0.0.0 (Edition Yx GX)" etag="LfQ0a0kg7_tgTLJj9wAU" version="22.1.0" type="github">
  <diagram name="Страница — 1" id="49laR57C2x4kgonKFz3S">
    <mxGraphModel dx="1801" dy="848" grid="1" gridSize="10" guides="1" tooltips="1" connect="1" arrows="1" fold="1" page="0" pageScale="1" pageWidth="1200" pageHeight="1920" math="0" shadow="0">
      <root>
        <mxCell id="0" />
        <mxCell id="1" parent="0" />
        <mxCell id="laYx5j4m6xEpJijdY2Um-21" value="user" style="swimlane;childLayout=stackLayout;horizontal=1;startSize=50;horizontalStack=0;rounded=1;fontSize=14;fontStyle=0;strokeWidth=2;resizeParent=0;resizeLast=1;shadow=0;dashed=0;align=center;arcSize=4;whiteSpace=wrap;html=1;labelBackgroundColor=none;" vertex="1" parent="1">
          <mxGeometry x="90" y="120" width="160" height="150" as="geometry" />
        </mxCell>
        <mxCell id="laYx5j4m6xEpJijdY2Um-22" value="id&lt;br&gt;tg_id&lt;br&gt;group_id&lt;br&gt;user_name&lt;br&gt;email" style="align=left;strokeColor=none;fillColor=none;spacingLeft=4;fontSize=12;verticalAlign=top;resizable=0;rotatable=0;part=1;html=1;labelBackgroundColor=none;rounded=1;" vertex="1" parent="laYx5j4m6xEpJijdY2Um-21">
          <mxGeometry y="50" width="160" height="100" as="geometry" />
        </mxCell>
        <mxCell id="laYx5j4m6xEpJijdY2Um-24" value="group" style="swimlane;childLayout=stackLayout;horizontal=1;startSize=50;horizontalStack=0;rounded=1;fontSize=14;fontStyle=0;strokeWidth=2;resizeParent=0;resizeLast=1;shadow=0;dashed=0;align=center;arcSize=4;whiteSpace=wrap;html=1;labelBackgroundColor=none;" vertex="1" parent="1">
          <mxGeometry x="390" y="120" width="160" height="120" as="geometry" />
        </mxCell>
        <mxCell id="laYx5j4m6xEpJijdY2Um-25" value="id&lt;br&gt;group_number&lt;br&gt;" style="align=left;strokeColor=none;fillColor=none;spacingLeft=4;fontSize=12;verticalAlign=top;resizable=0;rotatable=0;part=1;html=1;labelBackgroundColor=none;rounded=1;" vertex="1" parent="laYx5j4m6xEpJijdY2Um-24">
          <mxGeometry y="50" width="160" height="70" as="geometry" />
        </mxCell>
        <mxCell id="laYx5j4m6xEpJijdY2Um-26" value="subject" style="swimlane;childLayout=stackLayout;horizontal=1;startSize=50;horizontalStack=0;rounded=1;fontSize=14;fontStyle=0;strokeWidth=2;resizeParent=0;resizeLast=1;shadow=0;dashed=0;align=center;arcSize=4;whiteSpace=wrap;html=1;labelBackgroundColor=none;" vertex="1" parent="1">
          <mxGeometry x="860" y="120" width="160" height="120" as="geometry" />
        </mxCell>
        <mxCell id="laYx5j4m6xEpJijdY2Um-27" value="id&lt;br&gt;subject_name" style="align=left;strokeColor=none;fillColor=none;spacingLeft=4;fontSize=12;verticalAlign=top;resizable=0;rotatable=0;part=1;html=1;labelBackgroundColor=none;rounded=1;" vertex="1" parent="laYx5j4m6xEpJijdY2Um-26">
          <mxGeometry y="50" width="160" height="70" as="geometry" />
        </mxCell>
        <mxCell id="laYx5j4m6xEpJijdY2Um-28" value="" style="edgeStyle=entityRelationEdgeStyle;fontSize=12;html=1;endArrow=ERmandOne;startArrow=ERmandOne;rounded=1;exitX=1.006;exitY=0.419;exitDx=0;exitDy=0;exitPerimeter=0;entryX=-0.015;entryY=0.133;entryDx=0;entryDy=0;entryPerimeter=0;labelBackgroundColor=none;fontColor=default;" edge="1" parent="1" target="laYx5j4m6xEpJijdY2Um-25">
          <mxGeometry width="100" height="100" relative="1" as="geometry">
            <mxPoint x="250.00000000000003" y="240.95" as="sourcePoint" />
            <mxPoint x="379.04" y="209.05" as="targetPoint" />
          </mxGeometry>
        </mxCell>
        <mxCell id="laYx5j4m6xEpJijdY2Um-29" value="group_subject" style="swimlane;childLayout=stackLayout;horizontal=1;startSize=50;horizontalStack=0;rounded=1;fontSize=14;fontStyle=0;strokeWidth=2;resizeParent=0;resizeLast=1;shadow=0;dashed=0;align=center;arcSize=4;whiteSpace=wrap;html=1;labelBackgroundColor=none;" vertex="1" parent="1">
          <mxGeometry x="630" y="120" width="160" height="120" as="geometry" />
        </mxCell>
        <mxCell id="laYx5j4m6xEpJijdY2Um-30" value="group_id&lt;br&gt;subject_id&amp;nbsp;" style="align=left;strokeColor=none;fillColor=none;spacingLeft=4;fontSize=12;verticalAlign=top;resizable=0;rotatable=0;part=1;html=1;labelBackgroundColor=none;rounded=1;" vertex="1" parent="laYx5j4m6xEpJijdY2Um-29">
          <mxGeometry y="50" width="160" height="70" as="geometry" />
        </mxCell>
        <mxCell id="laYx5j4m6xEpJijdY2Um-57" value="" style="edgeStyle=entityRelationEdgeStyle;fontSize=12;html=1;endArrow=ERoneToMany;rounded=1;exitX=1.012;exitY=0.387;exitDx=0;exitDy=0;exitPerimeter=0;entryX=0;entryY=0.25;entryDx=0;entryDy=0;labelBackgroundColor=none;fontColor=default;" edge="1" parent="1" source="laYx5j4m6xEpJijdY2Um-25" target="laYx5j4m6xEpJijdY2Um-30">
          <mxGeometry width="100" height="100" relative="1" as="geometry">
            <mxPoint x="570" y="340" as="sourcePoint" />
            <mxPoint x="670" y="240" as="targetPoint" />
          </mxGeometry>
        </mxCell>
        <mxCell id="laYx5j4m6xEpJijdY2Um-58" value="" style="edgeStyle=entityRelationEdgeStyle;fontSize=12;html=1;endArrow=ERoneToMany;rounded=1;entryX=1.002;entryY=0.358;entryDx=0;entryDy=0;exitX=0.004;exitY=0.135;exitDx=0;exitDy=0;exitPerimeter=0;entryPerimeter=0;labelBackgroundColor=none;fontColor=default;" edge="1" parent="1" source="laYx5j4m6xEpJijdY2Um-27" target="laYx5j4m6xEpJijdY2Um-30">
          <mxGeometry width="100" height="100" relative="1" as="geometry">
            <mxPoint x="830" y="250" as="sourcePoint" />
            <mxPoint x="860" y="220" as="targetPoint" />
          </mxGeometry>
        </mxCell>
        <mxCell id="laYx5j4m6xEpJijdY2Um-59" value="timetable_group" style="swimlane;childLayout=stackLayout;horizontal=1;startSize=50;horizontalStack=0;rounded=1;fontSize=14;fontStyle=0;strokeWidth=2;resizeParent=0;resizeLast=1;shadow=0;dashed=0;align=center;arcSize=4;whiteSpace=wrap;html=1;labelBackgroundColor=none;" vertex="1" parent="1">
          <mxGeometry x="625" y="320" width="170" height="248" as="geometry" />
        </mxCell>
        <mxCell id="laYx5j4m6xEpJijdY2Um-60" value="id&lt;br&gt;group_id&lt;br&gt;weekday_number&lt;br&gt;period_number&lt;br&gt;subject_id_group1_week1&lt;br&gt;subject_id_group2_week1&lt;br&gt;subject_id_group1_week2&lt;br&gt;subject_id_group2_week2&lt;br&gt;audience_id_group1_week1&lt;br style=&quot;border-color: var(--border-color);&quot;&gt;audience_id_group2_week1&lt;br style=&quot;border-color: var(--border-color);&quot;&gt;audience_id_group1_week2&lt;br style=&quot;border-color: var(--border-color);&quot;&gt;audience_id_group2_week2" style="align=left;strokeColor=none;fillColor=none;spacingLeft=4;fontSize=12;verticalAlign=top;resizable=0;rotatable=0;part=1;html=1;labelBackgroundColor=none;rounded=1;" vertex="1" parent="laYx5j4m6xEpJijdY2Um-59">
          <mxGeometry y="50" width="170" height="198" as="geometry" />
        </mxCell>
        <mxCell id="laYx5j4m6xEpJijdY2Um-61" value="" style="edgeStyle=entityRelationEdgeStyle;fontSize=12;html=1;endArrow=ERoneToMany;rounded=1;exitX=0.5;exitY=1;exitDx=0;exitDy=0;labelBackgroundColor=none;fontColor=default;" edge="1" parent="1" source="laYx5j4m6xEpJijdY2Um-25">
          <mxGeometry width="100" height="100" relative="1" as="geometry">
            <mxPoint x="430" y="450" as="sourcePoint" />
            <mxPoint x="630" y="458" as="targetPoint" />
            <Array as="points">
              <mxPoint x="520" y="360" />
            </Array>
          </mxGeometry>
        </mxCell>
        <mxCell id="laYx5j4m6xEpJijdY2Um-67" value="timetable_lecturer" style="swimlane;childLayout=stackLayout;horizontal=1;startSize=50;horizontalStack=0;rounded=1;fontSize=14;fontStyle=0;strokeWidth=2;resizeParent=0;resizeLast=1;shadow=0;dashed=0;align=center;arcSize=4;whiteSpace=wrap;html=1;labelBackgroundColor=none;" vertex="1" parent="1">
          <mxGeometry x="90" y="320" width="180" height="190" as="geometry" />
        </mxCell>
        <mxCell id="laYx5j4m6xEpJijdY2Um-68" value="id&lt;br&gt;lecturer_id&lt;br&gt;weekday_number&lt;br&gt;period_number&lt;br&gt;subject_id_group1_week1&lt;br style=&quot;border-color: var(--border-color);&quot;&gt;subject_id_group1 _week2&lt;br&gt;audience_id_group1_week1&lt;br style=&quot;border-color: var(--border-color);&quot;&gt;audience_id_group1 _week2" style="align=left;strokeColor=none;fillColor=none;spacingLeft=4;fontSize=12;verticalAlign=top;resizable=0;rotatable=0;part=1;html=1;labelBackgroundColor=none;rounded=1;" vertex="1" parent="laYx5j4m6xEpJijdY2Um-67">
          <mxGeometry y="50" width="180" height="140" as="geometry" />
        </mxCell>
        <mxCell id="laYx5j4m6xEpJijdY2Um-69" value="audience" style="swimlane;childLayout=stackLayout;horizontal=1;startSize=50;horizontalStack=0;rounded=1;fontSize=14;fontStyle=0;strokeWidth=2;resizeParent=0;resizeLast=1;shadow=0;dashed=0;align=center;arcSize=4;whiteSpace=wrap;html=1;labelBackgroundColor=none;" vertex="1" parent="1">
          <mxGeometry x="380" y="520" width="160" height="120" as="geometry" />
        </mxCell>
        <mxCell id="laYx5j4m6xEpJijdY2Um-70" value="id&lt;br&gt;block_number&lt;br&gt;audience_number" style="align=left;strokeColor=none;fillColor=none;spacingLeft=4;fontSize=12;verticalAlign=top;resizable=0;rotatable=0;part=1;html=1;labelBackgroundColor=none;rounded=1;" vertex="1" parent="laYx5j4m6xEpJijdY2Um-69">
          <mxGeometry y="50" width="160" height="70" as="geometry" />
        </mxCell>
        <mxCell id="laYx5j4m6xEpJijdY2Um-71" value="" style="edgeStyle=entityRelationEdgeStyle;fontSize=12;html=1;endArrow=ERmandOne;startArrow=ERmandOne;rounded=1;entryX=0;entryY=0.5;entryDx=0;entryDy=0;labelBackgroundColor=none;fontColor=default;" edge="1" parent="1" target="laYx5j4m6xEpJijdY2Um-27">
          <mxGeometry width="100" height="100" relative="1" as="geometry">
            <mxPoint x="800" y="520" as="sourcePoint" />
            <mxPoint x="920" y="380" as="targetPoint" />
            <Array as="points">
              <mxPoint x="1240" y="490" />
              <mxPoint x="920" y="490" />
              <mxPoint x="910" y="290" />
              <mxPoint x="880" y="270" />
            </Array>
          </mxGeometry>
        </mxCell>
        <mxCell id="laYx5j4m6xEpJijdY2Um-74" value="" style="edgeStyle=entityRelationEdgeStyle;fontSize=12;html=1;endArrow=ERmandOne;startArrow=ERmandOne;rounded=1;exitX=1;exitY=0.25;exitDx=0;exitDy=0;labelBackgroundColor=none;fontColor=default;entryX=0;entryY=0.75;entryDx=0;entryDy=0;" edge="1" parent="1" source="laYx5j4m6xEpJijdY2Um-70" target="laYx5j4m6xEpJijdY2Um-60">
          <mxGeometry width="100" height="100" relative="1" as="geometry">
            <mxPoint x="559.9999999999999" y="681.2" as="sourcePoint" />
            <mxPoint x="647.92" y="570" as="targetPoint" />
          </mxGeometry>
        </mxCell>
        <mxCell id="laYx5j4m6xEpJijdY2Um-75" value="" style="edgeStyle=entityRelationEdgeStyle;fontSize=12;html=1;endArrow=ERmandOne;startArrow=ERmandOne;rounded=1;exitX=1;exitY=0.75;exitDx=0;exitDy=0;entryX=0;entryY=0.25;entryDx=0;entryDy=0;labelBackgroundColor=none;fontColor=default;" edge="1" parent="1" source="laYx5j4m6xEpJijdY2Um-68" target="laYx5j4m6xEpJijdY2Um-70">
          <mxGeometry width="100" height="100" relative="1" as="geometry">
            <mxPoint x="270" y="940" as="sourcePoint" />
            <mxPoint x="360" y="840" as="targetPoint" />
            <Array as="points">
              <mxPoint x="290" y="1090" />
            </Array>
          </mxGeometry>
        </mxCell>
        <mxCell id="laYx5j4m6xEpJijdY2Um-76" value="lecturer" style="swimlane;childLayout=stackLayout;horizontal=1;startSize=50;horizontalStack=0;rounded=1;fontSize=14;fontStyle=0;strokeWidth=2;resizeParent=0;resizeLast=1;shadow=0;dashed=0;align=center;arcSize=4;whiteSpace=wrap;html=1;labelBackgroundColor=none;" vertex="1" parent="1">
          <mxGeometry x="-160" y="330" width="160" height="120" as="geometry" />
        </mxCell>
        <mxCell id="laYx5j4m6xEpJijdY2Um-77" value="id&lt;br&gt;lecturer_name&lt;br&gt;department_number" style="align=left;strokeColor=none;fillColor=none;spacingLeft=4;fontSize=12;verticalAlign=top;resizable=0;rotatable=0;part=1;html=1;labelBackgroundColor=none;rounded=1;" vertex="1" parent="laYx5j4m6xEpJijdY2Um-76">
          <mxGeometry y="50" width="160" height="70" as="geometry" />
        </mxCell>
        <mxCell id="laYx5j4m6xEpJijdY2Um-80" value="" style="edgeStyle=entityRelationEdgeStyle;fontSize=12;html=1;endArrow=ERmandOne;startArrow=ERmandOne;rounded=0;entryX=-0.004;entryY=0.185;entryDx=0;entryDy=0;entryPerimeter=0;exitX=1.005;exitY=0.224;exitDx=0;exitDy=0;exitPerimeter=0;" edge="1" parent="1" source="laYx5j4m6xEpJijdY2Um-77" target="laYx5j4m6xEpJijdY2Um-68">
          <mxGeometry width="100" height="100" relative="1" as="geometry">
            <mxPoint x="-120" y="670" as="sourcePoint" />
            <mxPoint x="-20" y="570" as="targetPoint" />
          </mxGeometry>
        </mxCell>
      </root>
    </mxGraphModel>
  </diagram>
</mxfile>
